<svg width="50" height="50" viewBox="0 0 50 50" fill="none" xmlns="http://www.w3.org/2000/svg">
<path d="M45.8333 25C45.8333 13.4938 36.5062 4.16669 25 4.16669C13.4937 4.16669 4.16666 13.4938 4.16666 25C4.16666 36.5063 13.4937 45.8334 25 45.8334" stroke="white" stroke-width="1.5" stroke-linecap="round" stroke-linejoin="round"/>
<path d="M27.0833 4.27087C27.0833 4.27087 33.3333 12.5 33.3333 25M22.9167 45.7292C22.9167 45.7292 16.6667 37.5 16.6667 25C16.6667 12.5 22.9167 4.27087 22.9167 4.27087M5.47916 32.2917H25M5.47916 17.7084H44.5208" stroke="white" stroke-width="1.5" stroke-linecap="round" stroke-linejoin="round"/>
<path d="M45.5812 37.3271C46.6104 37.9604 46.5458 39.5 45.4875 39.6208L40.1396 40.2271L37.7417 45.0438C37.2667 46 35.7979 45.5313 35.5542 44.3479L32.9396 31.6063C32.7333 30.6063 33.6333 29.9771 34.5021 30.5125L45.5812 37.3271V37.3271Z" stroke="white" stroke-width="1.5"/>
</svg>
