<svg width="50" height="33" viewBox="0 0 50 33" fill="none" xmlns="http://www.w3.org/2000/svg">
<path d="M4.16667 19.5095C4.74537 19.5095 5.15046 19.2772 5.38194 18.8127C5.61343 18.3482 5.61343 17.8837 5.38194 17.4192C5.15046 16.9547 4.74537 16.7224 4.16667 16.7224C3.58796 16.7224 3.18287 16.9547 2.95139 17.4192C2.71991 17.8837 2.71991 18.3482 2.95139 18.8127C3.18287 19.2772 3.58796 19.5095 4.16667 19.5095ZM36.1328 18.2466C35.9881 18.0579 35.7096 17.695 35.2973 17.1579C34.885 16.6208 34.5848 16.2289 34.3967 15.9821C34.2086 15.7353 33.9337 15.3797 33.572 14.9152C33.2104 14.4507 32.9029 14.066 32.6497 13.7611C32.3966 13.4563 32.1036 13.1152 31.7708 12.7378C31.4381 12.3604 31.1126 12.0047 30.7943 11.6708L28.0816 14.7192C26.8808 16.0837 25.3725 16.7514 23.5569 16.7224C21.7412 16.6934 20.2546 15.9821 19.0972 14.5886C18.2726 13.587 17.8639 12.4402 17.8711 11.1483C17.8783 9.85635 18.3015 8.71685 19.1406 7.72976L22.9818 3.24432C22.6635 3.08465 22.2946 2.96489 21.875 2.88505C21.4554 2.80521 21.1118 2.76166 20.8442 2.75441C20.5765 2.74715 20.1678 2.75078 19.6181 2.76529C19.0683 2.77981 18.7138 2.78707 18.5547 2.78707C17.2237 2.78707 16.0807 3.2661 15.1259 4.22415L11.697 7.66444H8.33333V19.5095C8.40567 19.5095 8.55758 19.5058 8.78906 19.4986C9.02054 19.4913 9.17969 19.4913 9.26649 19.4986C9.3533 19.5058 9.49436 19.5204 9.68967 19.5421C9.88498 19.5639 10.0333 19.5966 10.1345 19.6401C10.2358 19.6837 10.3624 19.7454 10.5143 19.8252C10.6662 19.905 10.8001 20.003 10.9158 20.1191L17.3611 26.4771C19.0249 28.0884 20.667 28.8941 22.2873 28.8941C23.4158 28.8941 24.32 28.5529 25 27.8707C25.8247 28.161 26.6385 28.1029 27.4414 27.6965C28.2444 27.29 28.7688 26.6731 29.0148 25.8457C30.0854 25.9328 31.004 25.6134 31.7708 24.8876C32.0602 24.6264 32.3206 24.2961 32.5521 23.8969C32.7836 23.4977 32.8848 23.1312 32.8559 22.7973C33.0006 22.9425 33.3116 23.0151 33.7891 23.0151C34.4112 23.0151 34.9682 22.8627 35.4601 22.5578C35.952 22.253 36.31 21.8683 36.5343 21.4038C36.7585 20.9393 36.8453 20.4204 36.7947 19.847C36.7441 19.2736 36.5234 18.7401 36.1328 18.2466ZM39.5833 19.5095H41.6667V8.3612H39.6484L36.2413 4.44189C35.2865 3.33868 34.0639 2.78707 32.5738 2.78707H28.9497C27.662 2.78707 26.6059 3.27335 25.7812 4.24592L21.2457 9.537C20.8406 10.016 20.638 10.5604 20.638 11.17C20.638 11.7797 20.8333 12.3241 21.224 12.8031C21.8461 13.5434 22.6418 13.9208 23.6111 13.9353C24.5804 13.9499 25.3834 13.5942 26.02 12.8684L30.2083 8.12169C30.57 7.78782 30.957 7.63178 31.3694 7.65355C31.7817 7.67532 32.1217 7.87129 32.3893 8.24145C32.657 8.6116 32.7185 9.02168 32.5738 9.47168C32.8053 9.74748 33.2104 10.2047 33.7891 10.8434C34.3678 11.4821 34.8018 11.9757 35.0911 12.3241C35.5107 12.8466 36.1075 13.6124 36.8815 14.6212C37.6555 15.6301 38.1221 16.2434 38.2812 16.4611C39.0336 17.4192 39.4676 18.4353 39.5833 19.5095ZM45.8333 19.5095C46.412 19.5095 46.8171 19.2772 47.0486 18.8127C47.2801 18.3482 47.2801 17.8837 47.0486 17.4192C46.8171 16.9547 46.412 16.7224 45.8333 16.7224C45.2546 16.7224 44.8495 16.9547 44.6181 17.4192C44.3866 17.8837 44.3866 18.3482 44.6181 18.8127C44.8495 19.2772 45.2546 19.5095 45.8333 19.5095ZM50 6.96767V20.903C50 21.2804 49.8626 21.607 49.5877 21.8828C49.3128 22.1586 48.9873 22.2965 48.6111 22.2965H39.1927C38.8021 23.2401 38.2089 24.0131 37.4132 24.6155C36.6175 25.2179 35.7132 25.5917 34.7005 25.7368C34.2231 26.4336 33.6408 27.0251 32.9536 27.5114C32.2663 27.9977 31.5249 28.3279 30.7292 28.5021C30.1215 29.2715 29.3656 29.863 28.4614 30.2767C27.5571 30.6904 26.6276 30.8682 25.6727 30.8102C24.8047 31.3037 23.8932 31.5904 22.9384 31.6702C21.9835 31.7501 21.0612 31.6485 20.1714 31.3654C19.2817 31.0823 18.4353 30.694 17.6324 30.2005C16.8294 29.707 16.0807 29.1191 15.3863 28.4368L9.15799 22.2965H1.38889C1.01273 22.2965 0.687211 22.1586 0.412326 21.8828C0.137442 21.607 0 21.2804 0 20.903V6.2709C0 5.89349 0.137442 5.56688 0.412326 5.29107C0.687211 5.01527 1.01273 4.87737 1.38889 4.87737H10.5252C10.7277 4.67415 11.0677 4.32576 11.5451 3.83222C12.0226 3.33868 12.3662 2.99029 12.576 2.78707C12.7857 2.58384 13.104 2.29352 13.5308 1.91611C13.9576 1.53869 14.3229 1.26652 14.6267 1.09959C14.9306 0.932652 15.2995 0.747573 15.7335 0.544349C16.1675 0.341126 16.616 0.199595 17.079 0.119757C17.542 0.0399189 18.0339 0 18.5547 0H21.0938C22.526 0 23.8354 0.406447 25.0217 1.21934C26.208 0.406447 27.5174 0 28.9497 0H32.5738C33.0802 0 33.5648 0.0435479 34.0278 0.130644C34.4907 0.21774 34.8994 0.322981 35.2539 0.446366C35.6084 0.569752 35.9809 0.762089 36.3715 1.02338C36.7621 1.28466 37.0841 1.50966 37.3372 1.69837C37.5904 1.88708 37.9015 2.17377 38.2704 2.55844C38.6393 2.94311 38.9214 3.24795 39.1168 3.47295C39.3121 3.69795 39.6087 4.04633 40.0065 4.5181C40.4044 4.98987 40.7046 5.34188 40.9071 5.57414H48.6111C48.9873 5.57414 49.3128 5.71204 49.5877 5.98784C49.8626 6.26364 50 6.59025 50 6.96767Z" fill="white"/>
</svg>
