<svg width="50" height="50" viewBox="0 0 50 50" fill="none" xmlns="http://www.w3.org/2000/svg">
<g clip-path="url(#clip0_4_67)">
<path d="M33.418 7.74843C36 7.74843 38.3311 8.80488 39.9733 10.501C42.0163 10.1057 43.942 9.38535 45.6726 8.38769C45.003 10.4206 43.5788 12.126 41.7265 13.2049C43.539 12.9916 45.2742 12.526 46.8843 11.8299C45.6773 13.5752 44.1578 15.1119 42.4031 16.34C42.4195 16.7127 42.4289 17.0893 42.4289 17.4642C42.4289 28.9744 33.3953 42.2501 16.8766 42.2501C11.8062 42.2501 7.08359 40.8033 3.11176 38.333C3.8223 38.4156 4.53705 38.4568 5.25238 38.4563C9.45942 38.4563 13.3336 37.0649 16.4078 34.7259C12.4758 34.6587 9.15702 32.1376 8.01874 28.679C8.57623 28.7834 9.14219 28.836 9.70937 28.836C10.5258 28.836 11.3211 28.7306 12.0726 28.5306C7.96484 27.7329 4.86874 24.2118 4.86874 19.9891V19.8774C6.08046 20.5305 7.46405 20.9227 8.93827 20.968C6.52734 19.4039 4.94218 16.7414 4.94218 13.7187C4.94218 12.1211 5.38598 10.6242 6.15863 9.34218C10.5868 14.6094 17.2039 18.0781 24.6688 18.443C24.5148 17.807 24.4352 17.1352 24.4352 16.4594C24.4352 11.6477 28.4562 7.74843 33.418 7.74843ZM46.8842 11.8315H46.892H46.8842ZM33.4178 4.62363C27.2819 4.62363 22.1984 9.10649 21.4156 14.8987C16.3953 13.8901 11.8296 11.2323 8.54916 7.33305C8.25591 6.9842 7.88989 6.70372 7.47677 6.51128C7.06366 6.31883 6.61345 6.21909 6.15771 6.21904C6.07586 6.21906 5.99405 6.22218 5.91244 6.22841C5.4171 6.26808 4.93832 6.4251 4.51569 6.68647C4.09306 6.94785 3.73872 7.30608 3.48197 7.73154C2.3925 9.53926 1.81687 11.61 1.81708 13.7206C1.81708 15.1292 2.07016 16.5011 2.54989 17.7839C2.03896 18.3518 1.74443 19.0948 1.74443 19.8792V19.9909C1.74443 23.0519 2.95458 25.8925 4.96396 28.0214C4.84833 28.5573 4.87411 29.1183 5.05068 29.6558C5.74369 31.7643 7.00541 33.5815 8.64135 34.9658C7.54286 35.2104 6.40932 35.3338 5.25224 35.3338C4.64052 35.3338 4.04521 35.3002 3.48193 35.2314C3.35693 35.2158 3.23349 35.2103 3.10927 35.2103C1.79677 35.2103 0.605363 36.0377 0.163176 37.2994C-0.32198 38.6822 0.21635 40.215 1.46005 40.9893C6.07572 43.8612 11.4069 45.3775 16.8757 45.3775C34.6507 45.3775 45.3429 31.4627 45.5507 17.8705C47.0093 16.6638 48.2978 15.2651 49.3811 13.7127C49.7925 13.1725 50.0149 12.512 50.014 11.833C50.014 10.7697 49.482 9.82988 48.6718 9.26498C49.0226 8.06264 48.6226 6.76108 47.646 5.96577C47.0757 5.5017 46.3765 5.26577 45.6733 5.26577C45.1253 5.26525 44.5868 5.40943 44.1124 5.68373C43.0796 6.2791 41.9749 6.75019 40.8116 7.0893C38.7069 5.50571 36.0975 4.62368 33.4178 4.62363Z" fill="white"/>
</g>
<defs>
<clipPath id="clip0_4_67">
<rect width="50" height="50" fill="white"/>
</clipPath>
</defs>
</svg>
