<svg width="50" height="50" viewBox="0 0 50 50" fill="none" xmlns="http://www.w3.org/2000/svg">
<g clip-path="url(#clip0_4_69)">
<path d="M45.9344 9.2625C44.5797 8.2875 40.8047 6.99219 24.9867 6.99219C8.03595 6.99219 5.52111 8.47969 4.71403 8.96641C0.418713 11.5468 0.0109009 22.971 -0.0265503 25.2875C0.0250122 28.3469 0.519544 38.5258 4.71095 41.0438C5.51647 41.5289 8.0172 43.0078 24.9867 43.0078C40.8149 43.0078 44.5852 41.7188 45.9344 40.7477C49.5953 38.1141 50.0164 29.0445 50.0266 25.2477C50.0172 22.1946 49.6969 11.9727 45.9344 9.26255L45.9344 9.2625ZM44.1094 38.2117C43.5649 38.6039 40.4382 39.8828 24.9866 39.8828C10.0484 39.8828 6.91398 38.7234 6.32179 38.3664C4.81398 37.4617 3.22257 32.6593 3.09762 25.2789C3.22106 17.9148 4.83434 12.539 6.32501 11.6453C6.91876 11.2867 10.0648 10.1179 24.9866 10.1179C40.4257 10.1179 43.5609 11.4055 44.1093 11.7992C45.4477 12.7633 46.8804 17.8383 46.9015 25.2578C46.8804 32.7938 45.4382 37.2555 44.1093 38.2117H44.1094ZM35.1765 23.771L21.1172 15.1436C20.8802 15.0007 20.6095 14.9233 20.3328 14.9193C20.0561 14.9153 19.7832 14.9849 19.5422 15.1209C19.301 15.257 19.1002 15.4547 18.9605 15.6938C18.8207 15.933 18.747 16.2049 18.7469 16.4819V33.7397C18.7471 34.154 18.9118 34.5513 19.2048 34.8443C19.4977 35.1373 19.8951 35.302 20.3094 35.3022C20.5938 35.3022 20.8728 35.2247 21.1164 35.078L35.1758 26.4475C35.6445 26.164 35.9313 25.657 35.9313 25.1093C35.9313 24.5616 35.6453 24.053 35.1766 23.771H35.1765ZM21.8727 30.9717V19.2482L31.3454 25.1092L21.8727 30.9717Z" fill="white"/>
</g>
<defs>
<clipPath id="clip0_4_69">
<rect width="50" height="50" fill="white"/>
</clipPath>
</defs>
</svg>
